<svg width="29" height="23" fill="none" xmlns="http://www.w3.org/2000/svg"><path d="M26.561 14.281V6.803l.31-.093c1.194-.358 1.444-.964 1.444-1.41 0-.445-.25-1.052-1.444-1.41L16.66.827c-.63-.19-1.454-.293-2.321-.293-.868 0-1.692.104-2.321.293L1.806 3.89C.612 4.248.362 4.855.362 5.3c0 .446.25 1.052 1.444 1.41l3.819 1.146v6.174c0 .766.498 1.846 2.872 2.638 1.573.524 3.647.812 5.842.812 2.194 0 4.269-.288 5.841-.812 2.374-.792 2.872-1.872 2.872-2.638V7.856l1.871-.561v6.986a2.577 2.577 0 00-1.754 2.44v3.508a2.576 2.576 0 002.573 2.574 2.576 2.576 0 002.573-2.574v-3.508a2.577 2.577 0 00-1.754-2.44zM12.488 2.396c.474-.142 1.148-.223 1.85-.223.703 0 1.378.081 1.851.223L25.872 5.3l-3.878 1.164c-.002 0-.005 0-.007.002l-5.798 1.74c-.473.141-1.148.223-1.85.223-.703 0-1.377-.082-1.85-.224L6.69 6.465l-.006-.001L2.806 5.3l9.682-2.905zm8.926 9.484c0 2.256-.297 2.75-1.752 3.235-1.41.47-3.3.728-5.323.728-2.023 0-3.914-.258-5.324-.728-1.455-.485-1.752-.979-1.752-1.084V8.347l4.755 1.427c.629.189 1.453.293 2.32.293.868 0 1.693-.104 2.322-.293l4.754-1.427v3.532zm5.264 8.35a.936.936 0 01-1.871 0v-3.508a.936.936 0 011.87 0v3.508z" fill="#fff"/></svg>