<svg width="27" height="26" fill="none" xmlns="http://www.w3.org/2000/svg"><path d="M25.64 11.309l-.002-.002L15.032.701A2.377 2.377 0 0013.34 0c-.64 0-1.24.249-1.693.701l-10.6 10.6-.011.011a2.396 2.396 0 00.005 3.38 2.38 2.38 0 001.662.702h.422v7.805A2.804 2.804 0 005.927 26h4.15c.42 0 .761-.341.761-.762V19.12a1.28 1.28 0 011.278-1.278h2.447a1.28 1.28 0 011.278 1.278v6.12c0 .42.342.761.762.761h4.15a2.804 2.804 0 002.801-2.801v-7.805h.392c.64 0 1.24-.25 1.693-.701a2.396 2.396 0 000-3.384z" fill="#fff"/></svg>