<svg width="27" height="24" fill="none" xmlns="http://www.w3.org/2000/svg"><path d="M23.335.986H2.972A2.79 2.79 0 00.186 3.772v13.373a2.79 2.79 0 002.786 2.786h6.56c.08 0 .157.038.204.103l2.394 3.245c.24.325.61.513 1.013.515h.006c.402 0 .77-.184 1.012-.506l2.448-3.256a.254.254 0 01.203-.101h6.523a2.79 2.79 0 002.786-2.786V3.772A2.79 2.79 0 0023.335.986zm1.267 16.16c0 .119-.017.234-.048.344l-7.807-6.843 7.855-6.518v13.016zm-1.267-14.64c.232 0 .45.062.636.172l-10.007 8.304a1.267 1.267 0 01-1.617 0L2.34 2.676c.186-.108.402-.17.633-.17h20.363zM1.754 17.49a1.262 1.262 0 01-.048-.345V4.125l7.856 6.52-7.808 6.845zm13.64 1.629l-2.243 2.984-2.192-2.971a1.78 1.78 0 00-1.427-.72H3.008l7.738-6.784.63.523a2.78 2.78 0 001.78.642 2.78 2.78 0 001.779-.642l.628-.521 7.736 6.781h-6.487a1.78 1.78 0 00-1.417.708z" fill="#fff"/></svg>