<svg width="24" height="27" fill="none" xmlns="http://www.w3.org/2000/svg"><path d="M12.34.098a6.874 6.874 0 00-6.867 6.866 6.874 6.874 0 006.867 6.867 6.874 6.874 0 006.866-6.867A6.874 6.874 0 0012.34.098zm0 12.207a5.347 5.347 0 01-5.341-5.34 5.347 5.347 0 015.34-5.342 5.347 5.347 0 015.341 5.341 5.347 5.347 0 01-5.34 5.341zm8.543 6.012c-1.88-1.909-4.372-2.96-7.017-2.96h-3.052c-2.646 0-5.138 1.051-7.018 2.96a10.007 10.007 0 00-2.9 7.06c0 .422.34.763.762.763h21.363a.763.763 0 00.763-.763c0-2.653-1.03-5.16-2.9-7.06zM2.455 24.614c.382-4.328 3.985-7.731 8.359-7.731h3.052c4.373 0 7.976 3.403 8.359 7.731H2.455z" fill="#fff"/></svg>