<svg width="27" height="27" fill="none" xmlns="http://www.w3.org/2000/svg"><path d="M13.97 26.977h-1.632a2.396 2.396 0 01-2.394-2.393v-.552a10.493 10.493 0 01-1.63-.677l-.39.391a2.393 2.393 0 01-3.386 0l-1.154-1.153a2.393 2.393 0 010-3.386l.392-.39a10.501 10.501 0 01-.677-1.63h-.552a2.396 2.396 0 01-2.393-2.394v-1.632a2.396 2.396 0 012.393-2.393H3.1c.18-.562.406-1.107.677-1.63l-.391-.391a2.394 2.394 0 010-3.386l1.153-1.153a2.393 2.393 0 013.386 0l.39.391a10.506 10.506 0 011.63-.676V3.37A2.396 2.396 0 0112.338.977h1.632a2.396 2.396 0 012.393 2.394v.552c.561.179 1.106.405 1.63.676l.391-.391a2.393 2.393 0 013.386 0l1.153 1.154c.922.92.948 2.437 0 3.385l-.391.39c.27.524.497 1.07.676 1.63h.552a2.396 2.396 0 012.394 2.394v1.632a2.396 2.396 0 01-2.394 2.393h-.552c-.18.562-.405 1.107-.676 1.63l.39.392a2.393 2.393 0 010 3.385l-1.153 1.153a2.393 2.393 0 01-3.385 0l-.391-.39c-.524.27-1.069.496-1.63.676v.552a2.396 2.396 0 01-2.393 2.393zm-5.401-5.222c.728.43 1.51.756 2.327.966.337.087.572.39.572.738v1.125c0 .48.39.87.87.87h1.632c.48 0 .87-.39.87-.87v-1.125c0-.348.235-.65.571-.738.817-.21 1.6-.535 2.327-.966.3-.177.68-.129.927.117l.797.797a.87.87 0 001.23 0l1.154-1.154a.87.87 0 000-1.23l-.797-.797a.762.762 0 01-.117-.926 8.98 8.98 0 00.966-2.328.762.762 0 01.738-.571h1.124c.48 0 .87-.39.87-.87v-1.632a.87.87 0 00-.87-.87h-1.124a.762.762 0 01-.738-.571 8.98 8.98 0 00-.966-2.328.762.762 0 01.117-.926l.797-.797a.87.87 0 000-1.23l-1.154-1.154a.87.87 0 00-1.23 0l-.797.797a.762.762 0 01-.927.117 8.98 8.98 0 00-2.327-.966.762.762 0 01-.571-.738V3.371a.87.87 0 00-.87-.87h-1.632a.87.87 0 00-.87.87v1.124a.762.762 0 01-.572.738c-.816.21-1.6.536-2.327.966a.762.762 0 01-.926-.117l-.797-.797a.87.87 0 00-1.23 0L4.462 6.439a.87.87 0 000 1.23l.796.797a.762.762 0 01.118.926 8.978 8.978 0 00-.967 2.328.762.762 0 01-.737.571H2.547a.87.87 0 00-.87.87v1.632c0 .48.39.87.87.87h1.125c.347 0 .65.235.737.571.211.817.536 1.6.966 2.328a.76.76 0 01-.117.926l-.796.797a.87.87 0 000 1.23l1.153 1.154a.87.87 0 001.23 0l.798-.797a.765.765 0 01.926-.117z" fill="#fff"/><path d="M13.154 19.634a5.663 5.663 0 01-5.657-5.657 5.663 5.663 0 015.657-5.657 5.663 5.663 0 015.657 5.657 5.663 5.663 0 01-5.657 5.657zm0-9.79a4.138 4.138 0 00-4.134 4.133 4.138 4.138 0 004.134 4.134 4.138 4.138 0 004.133-4.134 4.138 4.138 0 00-4.133-4.134z" fill="#fff"/></svg>