<svg width="27" height="27" fill="none" xmlns="http://www.w3.org/2000/svg"><path d="M18.694 20.515v2.04c0 2.25-1.83 4.079-4.08 4.079H4.367a4.084 4.084 0 01-4.079-4.079V4.607c0-2.25 1.83-4.079 4.08-4.079h10.248c2.25 0 4.079 1.83 4.079 4.08v2.039a1.02 1.02 0 11-2.04 0v-2.04c0-1.124-.915-2.04-2.04-2.04H4.367c-1.124 0-2.04.916-2.04 2.04v17.948c0 1.125.916 2.04 2.04 2.04h10.249c1.124 0 2.04-.915 2.04-2.04v-2.04a1.02 1.02 0 112.039 0zm6.952-8.686l-2.283-2.283a1.02 1.02 0 10-1.442 1.442l1.624 1.624H11.301a1.02 1.02 0 100 2.04h12.244l-1.624 1.624a1.02 1.02 0 101.442 1.442l2.283-2.283a2.552 2.552 0 000-3.606z" fill="#fff"/></svg>