<svg width="25" height="27" fill="none" xmlns="http://www.w3.org/2000/svg"><path d="M23.21 11.897a.813.813 0 01-.813-.813c0-3.111-1.21-6.035-3.41-8.235a.813.813 0 111.15-1.15 13.19 13.19 0 013.886 9.385.813.813 0 01-.813.813zm-22.208 0a.813.813 0 01-.813-.813A13.191 13.191 0 014.076 1.7a.813.813 0 011.15 1.15 11.564 11.564 0 00-3.412 8.234.813.813 0 01-.812.813zm11.104 14.354a4.067 4.067 0 01-4.063-4.063.813.813 0 011.625 0 2.44 2.44 0 002.438 2.438 2.44 2.44 0 002.437-2.438.813.813 0 011.625 0 4.067 4.067 0 01-4.062 4.063z" fill="#000"/><path d="M21.043 23.001H3.168a1.898 1.898 0 01-1.232-3.337 7.26 7.26 0 002.586-5.56v-3.02c0-4.181 3.402-7.583 7.584-7.583 4.181 0 7.583 3.402 7.583 7.583v3.02c0 2.145.94 4.168 2.576 5.553A1.896 1.896 0 0121.043 23zM12.106 5.126a5.965 5.965 0 00-5.959 5.958v3.02c0 2.623-1.149 5.1-3.152 6.793a.27.27 0 00.173.479h17.875a.274.274 0 00.271-.27.267.267 0 00-.095-.207 8.882 8.882 0 01-3.155-6.794v-3.02a5.965 5.965 0 00-5.958-5.959z" fill="#000"/><path d="M12.106 5.126a.813.813 0 01-.813-.812v-3.25a.813.813 0 011.625 0v3.25a.813.813 0 01-.812.812z" fill="#000"/></svg>