<svg width="40" height="40" fill="none" xmlns="http://www.w3.org/2000/svg"><g clip-path="url(#clip0)"><path d="M31.797 3.203H8.203C3.68 3.203 0 6.883 0 11.406v13.2c0 4.522 3.68 8.202 8.203 8.202H9.42l2.854 3.62a1.172 1.172 0 001.84 0l2.854-3.62h14.829c4.523 0 8.203-3.68 8.203-8.203V11.406c0-4.523-3.68-8.203-8.203-8.203z" fill="#6787F5"/><path d="M31.797 3.203H20v29.605h11.797c4.523 0 8.203-3.68 8.203-8.203V11.406c0-4.523-3.68-8.203-8.203-8.203z" fill="#38478A"/><path d="M15.606 34.535l1.362-1.727-1.362 1.727zM40 12.832h-9.853l7.334-7.334a8.175 8.175 0 00-5.684-2.295h-1.965L25.175 7.86V3.203h-10.35V7.86l-4.657-4.657H8.203A8.175 8.175 0 002.52 5.498l7.334 7.334H0v10.35h9.853l-7.06 7.06-.273.273a8.174 8.174 0 005.683 2.293H9.42l.331.42 4.948-4.949-.08 4.53h10.556v-4.642l4.626 4.641h1.996c2.194 0 4.19-.866 5.664-2.274l-.276-.277-7.051-7.075H40v-10.35z" fill="#fff"/><path d="M40 12.832h-9.853l7.334-7.334a8.175 8.175 0 00-5.684-2.295h-1.965L25.175 7.86V3.203H20v29.605h5.175v-4.64l4.626 4.64h1.996c2.194 0 4.19-.866 5.664-2.274l-.276-.277-7.051-7.075H40v-10.35z" fill="#C7D3ED"/><path d="M22.831 15.176V3.203H17.17v11.973H0v5.663h17.169l-.201 11.97h5.863v-11.97H40v-5.663H22.831z" fill="#FF337A"/><path d="M22.831 15.176V3.203H20v29.605h2.831v-11.97H40v-5.662H22.831z" fill="#D1005B"/><path d="M15.606 13.613v-1.657L6.95 3.3a8.138 8.138 0 00-2.5.815l9.5 9.5h1.657z" fill="#FF337A"/><path d="M35.55 4.114a8.137 8.137 0 00-2.499-.815l-8.657 8.657v1.657h1.657l9.5-9.5z" fill="#D1005B"/><path d="M4.451 31.899a8.164 8.164 0 002.5.814l8.655-8.655v-1.657H13.95L4.451 31.9z" fill="#FF337A"/><path d="M24.394 22.401v1.662l8.625 8.654a8.148 8.148 0 002.506-.806l-9.479-9.51h-1.652z" fill="#D1005B"/></g><defs><clipPath id="clip0"><path fill="#fff" d="M0 0h40v40H0z"/></clipPath></defs></svg>