<svg width="40" height="40" fill="none" xmlns="http://www.w3.org/2000/svg"><g clip-path="url(#clip0)"><path d="M8.335 0a.833.833 0 00-.833.834v3.333a.833.833 0 001.666 0V.833A.833.833 0 008.335 0z" fill="#37474F"/><path d="M11.668 3.333H8.335a.833.833 0 010-1.666h3.333a.833.833 0 110 1.666z" fill="#37474F"/><path d="M11.668 5a.833.833 0 01-.833-.833V.833a.833.833 0 111.667 0v3.334c0 .46-.373.833-.834.833zm6.667-3.333h-3.333a.833.833 0 010-1.667h3.333a.833.833 0 110 1.667z" fill="#37474F"/><path d="M16.668 5a.833.833 0 01-.833-.833V.833a.833.833 0 111.667 0v3.334c0 .46-.373.833-.834.833zm10 0a.833.833 0 01-.833-.833v-.834l-1 1.334a.863.863 0 01-1.333 0l-1-1.334v.834a.833.833 0 01-1.667 0V.833a.833.833 0 011.5-.5l1.833 2.444L26.002.333a.833.833 0 011.5.5v3.334c0 .46-.373.833-.834.833zm5.834 0h-2.5a.833.833 0 01-.834-.833V.833a.833.833 0 011.667 0v2.5h1.667a.833.833 0 010 1.667z" fill="#37474F"/><path d="M33.952 8.607a.833.833 0 00-.617-.274H6.668a.833.833 0 00-.833.912l2.5 26.667a.832.832 0 00.602.723l11.666 3.333a.832.832 0 00.495-.01l10-3.333a.833.833 0 00.567-.713l2.5-26.667a.833.833 0 00-.213-.638z" fill="#FF5722"/><path d="M20.835 33.333a.833.833 0 01-.228-.033l-5.834-1.667a.833.833 0 01-.58-.598l-.833-3.333a.833.833 0 111.617-.404l.716 2.867 5.124 1.463 4.243-1.415.687-6.88H13.335a.833.833 0 01-.833-.728l-.834-6.667a.833.833 0 01.834-.938h15.833a.833.833 0 010 1.667h-14.89l.625 5h12.598a.833.833 0 01.834.916l-.834 8.334a.833.833 0 01-.565.708l-5 1.667a.858.858 0 01-.268.041z" fill="#FAFAFA"/></g><defs><clipPath id="clip0"><path fill="#fff" d="M0 0h40v40H0z"/></clipPath></defs></svg>