<svg width="40" height="40" fill="none" xmlns="http://www.w3.org/2000/svg"><path d="M40 20a19.942 19.942 0 01-3.197 10.85 20.041 20.041 0 01-5.28 5.499A19.904 19.904 0 0120 40a19.905 19.905 0 01-11.523-3.651 20.004 20.004 0 01-2.698-2.287A19.934 19.934 0 010 20C0 14.518 2.206 9.55 5.779 5.938a20.041 20.041 0 012.87-2.406A19.902 19.902 0 0120 0c4.216 0 8.127 1.304 11.352 3.532a19.83 19.83 0 012.233 1.791 20.028 20.028 0 015.01 7.299A19.944 19.944 0 0140 20z" fill="#E4BA42"/><path d="M30.55 18.2c-.556-1.614-2.838-1.614-3.284-.278-.445 1.336 1.058 2.116 3.396 2.895 2.338.78 3.786 2.84 3.507 4.676-.278 1.837-1.057 4.231-5.678 4.231-2.888 0-4.492-1.805-5.29-3.158l2.618-1.574s.89 1.893 2.56 1.893 2.339-.557 2.339-1.837c0-1.559-5.4-2.115-6.235-4.787-.835-2.673.278-6.458 4.175-6.18 2.436.174 3.806 1.37 4.49 2.243L30.551 18.2zm-12.135-3.84v10.688c0 1.28-1.113 1.949-2.227 1.726-1.113-.223-1.614-1.559-1.614-1.559l-2.56 1.726s.556 2.56 4.063 2.783c3.507.223 5.511-1.893 5.511-3.674V14.36h-3.173z" fill="#F2F2F2"/><path d="M5.779 3.532v30.53a20.01 20.01 0 002.698 2.287h23.046a20.055 20.055 0 002.19-1.791H7.57V5.323h29.233v25.528a19.89 19.89 0 001.792-3.473V3.532H5.78z" fill="#F2F2F2"/><path d="M6.864 29.669a3.173 3.173 0 100-6.346 3.173 3.173 0 000 6.346z" fill="#3F4A43"/></svg>