<svg width="40" height="40" viewBox="0 0 40 40" fill="none" xmlns="http://www.w3.org/2000/svg">
<g clip-path="url(#clip0)">
<path d="M31.7969 3.20313H8.20312C3.67981 3.20313 0 6.88293 0 11.4062V24.6051C0 29.1284 3.67981 32.8082 8.20312 32.8082H9.42047L12.2736 36.4279C12.496 36.7099 12.8351 36.8744 13.194 36.8744C13.5529 36.8744 13.8922 36.7099 14.1144 36.4279L16.9675 32.8082H31.7969C36.3202 32.8082 40 29.1284 40 24.6051V11.4062C40 6.88293 36.3202 3.20312 31.7969 3.20312V3.20313Z" fill="#6787F5"/>
<path d="M31.7969 3.20312H20V32.8082H31.7969C36.3202 32.8082 40 29.1284 40 24.6051V11.4062C40 6.88293 36.3202 3.20312 31.7969 3.20312Z" fill="#38478A"/>
<path d="M15.6061 34.5355L16.9675 32.8082L15.6061 34.5355Z" fill="white"/>
<path d="M40 12.8323H30.1468L37.4814 5.49774C36.0059 4.07776 34.0018 3.20312 31.7969 3.20312H29.8325L25.1752 7.86041V3.20312H14.8251V7.86041L10.1678 3.20312H8.20312C5.99823 3.20312 3.99414 4.07776 2.51862 5.49774L9.85321 12.8323H0V23.1824H9.85321L2.79388 30.2414L2.52014 30.5151C3.99567 31.9345 5.99915 32.8082 8.20312 32.8082H9.42047L9.75128 33.2278L14.6994 28.2794L14.6191 32.8082H25.1749V28.1671L29.8007 32.8082H31.7969C33.9914 32.8082 35.9872 31.9421 37.4606 30.5338L37.1848 30.2567L30.134 23.1824H40V12.8323Z" fill="white"/>
<path d="M40 12.8323H30.1468L37.4814 5.49774C36.0059 4.07776 34.0018 3.20312 31.7969 3.20312H29.8325L25.1752 7.86041V3.20312H20V32.8082H25.1749V28.1671L29.8007 32.8082H31.7969C33.9914 32.8082 35.9872 31.9421 37.4606 30.5338L37.1848 30.2567L30.134 23.1824H40V12.8323Z" fill="#C7D3ED"/>
<path d="M22.8311 15.1761V3.20312H17.1689V15.1761H0V20.8386H17.1689L16.9675 32.8082H22.8311V20.8386H40V15.1761H22.8311Z" fill="#FF337A"/>
<path d="M22.8311 15.1761V3.20312H20V32.8082H22.8311V20.8386H40V15.1761H22.8311Z" fill="#D1005B"/>
<path d="M15.6061 13.6133V11.9562L6.94885 3.29895C6.0611 3.43567 5.21973 3.71552 4.44916 4.11377L13.949 13.6133H15.6061Z" fill="#FF337A"/>
<path d="M35.5508 4.11377C34.7803 3.71552 33.9389 3.43567 33.0511 3.29895L24.3939 11.9562V13.6133H26.051L35.5508 4.11377Z" fill="#D1005B"/>
<path d="M4.45129 31.8988C5.22217 32.2968 6.06354 32.5763 6.9516 32.713L15.6061 24.0582V22.4011H13.949L4.45129 31.8988Z" fill="#FF337A"/>
<path d="M24.3939 22.4011V24.0631L33.0188 32.7173C33.9084 32.5836 34.7519 32.3071 35.5246 31.9113L26.0464 22.4011H24.3939Z" fill="#D1005B"/>
</g>
<defs>
<clipPath id="clip0">
<rect width="40" height="40" fill="white"/>
</clipPath>
</defs>
</svg>
