<svg width="40" height="40" viewBox="0 0 40 40" fill="none" xmlns="http://www.w3.org/2000/svg">
<g clip-path="url(#clip0)">
<path d="M8.3351 0.000144958C7.87486 0.000144958 7.50174 0.373269 7.50174 0.833503V4.16686C7.50174 4.62709 7.87486 5.00021 8.3351 5.00021C8.79533 5.00021 9.16846 4.62709 9.16846 4.16686V0.833425C9.16846 0.373191 8.79533 0.000144958 8.3351 0.000144958Z" fill="#37474F"/>
<path d="M11.6683 3.33336H8.33499C7.87476 3.33336 7.50163 2.96024 7.50163 2.50001C7.50163 2.03977 7.87476 1.66665 8.33499 1.66665H11.6683C12.1286 1.66665 12.5017 2.03977 12.5017 2.50001C12.5017 2.96024 12.1287 3.33336 11.6683 3.33336Z" fill="#37474F"/>
<path d="M11.6683 5.00007C11.2081 5.00007 10.835 4.62694 10.835 4.16671V0.833358C10.835 0.373124 11.2081 0 11.6683 0C12.1286 0 12.5017 0.373124 12.5017 0.833358V4.16671C12.5017 4.62694 12.1287 5.00007 11.6683 5.00007Z" fill="#37474F"/>
<path d="M18.335 1.66672H15.0017C14.5415 1.66672 14.1683 1.29359 14.1683 0.833358C14.1683 0.373124 14.5415 0 15.0017 0H18.335C18.7953 0 19.1684 0.373124 19.1684 0.833358C19.1684 1.29359 18.7953 1.66672 18.335 1.66672Z" fill="#37474F"/>
<path d="M16.6683 5.00007C16.2081 5.00007 15.835 4.62694 15.835 4.16671V0.833358C15.835 0.373124 16.2081 0 16.6683 0C17.1286 0 17.5017 0.373124 17.5017 0.833358V4.16671C17.5017 4.62694 17.1286 5.00007 16.6683 5.00007Z" fill="#37474F"/>
<path d="M26.6683 5.00008C26.2081 5.00008 25.835 4.62695 25.835 4.16672V3.33336L24.835 4.66672C24.532 5.03492 23.9879 5.08781 23.6197 4.78484C23.5766 4.74937 23.5371 4.70984 23.5016 4.66672L22.5016 3.33336V4.16672C22.5016 4.62695 22.1285 5.00008 21.6682 5.00008C21.208 5.00008 20.8349 4.62695 20.8349 4.16672V0.833365C20.8349 0.373132 21.208 7.71014e-06 21.6682 7.71014e-06C21.9305 7.71014e-06 22.1775 0.123523 22.3349 0.333366L24.1682 2.77672L26.0016 0.333366C26.2778 -0.0348359 26.8001 -0.109445 27.1682 0.166726C27.3781 0.32407 27.5016 0.5711 27.5016 0.833365V4.16672C27.5017 4.62695 27.1286 5.00008 26.6683 5.00008Z" fill="#37474F"/>
<path d="M32.5017 5.00007H30.0017C29.5414 5.00007 29.1683 4.62694 29.1683 4.16671V0.833358C29.1683 0.373124 29.5414 0 30.0017 0C30.4619 0 30.835 0.373124 30.835 0.833358V3.33335H32.5017C32.9619 3.33335 33.335 3.70648 33.335 4.16671C33.335 4.62694 32.9619 5.00007 32.5017 5.00007Z" fill="#37474F"/>
<path d="M33.9517 8.6067C33.7938 8.43271 33.5699 8.33349 33.335 8.33334H6.66834C6.20811 8.33131 5.83334 8.70271 5.83131 9.16295C5.83116 9.19037 5.83241 9.21771 5.83498 9.24498L8.33498 35.9116C8.36725 36.2537 8.60615 36.5409 8.93662 36.6349L20.6032 39.9683C20.6785 39.9897 20.7566 40.0003 20.8349 39.9999C20.9243 39.9999 21.0132 39.9858 21.0982 39.9583L31.0982 36.6249C31.4119 36.5206 31.6342 36.2407 31.6649 35.9116L34.1649 9.24498C34.1868 9.01169 34.1094 8.77998 33.9517 8.6067Z" fill="#FF5722"/>
<path d="M20.8351 33.3333C20.7578 33.3328 20.6809 33.3216 20.6067 33.2999L14.7734 31.6333C14.4871 31.5518 14.266 31.3237 14.1934 31.0349L13.3601 27.7016C13.2383 27.2578 13.4995 26.7992 13.9433 26.6775C14.3872 26.5558 14.8457 26.817 14.9674 27.2608C14.9708 27.2732 14.9739 27.2856 14.9767 27.2982L15.6933 30.1649L20.8167 31.6282L25.0601 30.2132L25.7467 23.3332H13.3351C12.9129 23.3366 12.5549 23.0237 12.5017 22.6049L11.6683 15.9382C11.6104 15.4817 11.9334 15.0646 12.39 15.0065C12.427 15.0018 12.4644 14.9996 12.5016 14.9999H28.335C28.7952 14.9999 29.1683 15.373 29.1683 15.8332C29.1683 16.2935 28.7952 16.6666 28.335 16.6666H13.4451L14.0701 21.6666H26.6684C27.1286 21.6643 27.5036 22.0355 27.5059 22.4957C27.5061 22.525 27.5047 22.5542 27.5018 22.5832L26.6684 30.9166C26.6361 31.2434 26.4149 31.5207 26.1034 31.6249L21.1034 33.2916C21.0167 33.3196 20.9261 33.3338 20.8351 33.3333Z" fill="#FAFAFA"/>
</g>
<defs>
<clipPath id="clip0">
<rect width="40" height="40" fill="white"/>
</clipPath>
</defs>
</svg>
