<svg width="40" height="40" viewBox="0 0 40 40" fill="none" xmlns="http://www.w3.org/2000/svg">
<path d="M40 20C40 22.6057 39.502 25.0947 38.5951 27.378C38.1102 28.5992 37.5085 29.7616 36.8032 30.8506C35.9248 32.209 34.8856 33.4539 33.7134 34.5576C33.0269 35.2049 32.2955 35.8033 31.5232 36.3486C28.2661 38.649 24.2914 40 20 40C15.7086 40 11.7339 38.649 8.47672 36.3486C7.51016 35.6662 6.60734 34.9012 5.77875 34.062C2.2057 30.4498 0 25.4816 0 20C0 14.5184 2.2057 9.55023 5.77875 5.93797C6.65633 5.04984 7.61711 4.24406 8.64812 3.53227C11.8727 1.30445 15.7837 0 20 0C24.2163 0 28.1273 1.30445 31.3519 3.53227C32.1396 4.07516 32.8858 4.6743 33.5853 5.32328C34.8106 6.45633 35.893 7.74203 36.8033 9.14937C37.5086 10.2384 38.1102 11.4008 38.5952 12.622C39.502 14.9053 40 17.3943 40 20Z" fill="#E4BA42"/>
<path d="M30.5508 18.2008C29.9941 16.5864 27.7116 16.5864 27.2664 17.9224C26.8211 19.2584 28.3241 20.0377 30.6622 20.8172C33.0002 21.5966 34.4476 23.6563 34.1693 25.4933C33.8909 27.3302 33.1115 29.7241 28.4911 29.7241C25.6034 29.7241 23.9986 27.9191 23.201 26.5656L25.819 24.9923C25.819 24.9923 26.7097 26.885 28.3797 26.885C30.0498 26.885 30.7178 26.3284 30.7178 25.048C30.7178 23.4893 25.3179 22.9327 24.4829 20.2606C23.6479 17.5884 24.7613 13.8031 28.658 14.0813C31.0936 14.2553 32.4635 15.4513 33.1485 16.3238L30.5508 18.2008Z" fill="#F2F2F2"/>
<path d="M18.4152 14.3598C18.4152 14.3598 18.4152 23.7677 18.4152 25.048C18.4152 26.3284 17.3018 26.9965 16.1884 26.7737C15.0751 26.5511 14.5741 25.2151 14.5741 25.2151L12.0134 26.9408C12.0134 26.9408 12.57 29.5015 16.0771 29.7242C19.5842 29.9469 21.5882 27.8315 21.5882 26.0501C21.5882 24.2687 21.5882 14.3598 21.5882 14.3598H18.4152Z" fill="#F2F2F2"/>
<path d="M5.77875 3.53227V34.0621C6.60734 34.9013 7.51015 35.6661 8.47672 36.3486H31.5233C32.2955 35.8033 33.027 35.2049 33.7135 34.5576H7.56976V5.32329H36.8032V30.8506C37.5085 29.7617 38.1102 28.5992 38.5951 27.378V3.53227H5.77875Z" fill="#F2F2F2"/>
<path d="M6.86369 29.6686C8.61612 29.6686 10.0367 28.248 10.0367 26.4955C10.0367 24.7431 8.61612 23.3225 6.86369 23.3225C5.11126 23.3225 3.69064 24.7431 3.69064 26.4955C3.69064 28.248 5.11126 29.6686 6.86369 29.6686Z" fill="#3F4A43"/>
</svg>
